<svg fill="none" xmlns="http://www.w3.org/2000/svg" viewBox="0 0 101 29"><path d="M35.4 11.3H32V8.8c0-.3-.2-.5-.4-.5h-.7c-.3 0-.5.2-.5.5v2.5H29c-.3 0-.5.2-.5.5v.6c0 .3.2.5.5.5h1.5V21c0 1.8 1.5 3.2 3.4 3.2h1.7c.2 0 .4-.3.4-.5v-.5c0-.3-.3-.5-.5-.4H34c-1 0-2-.8-2-1.8v-8.1h3.4c.3 0 .5-.2.5-.5v-.6c0-.3-.2-.5-.5-.5z" fill="#23B8CC"/><path d="M35.4 11.3H32V8.8c0-.3-.2-.5-.4-.5h-.7c-.3 0-.5.2-.5.5v2.5H29c-.3 0-.5.2-.5.5v.6c0 .3.2.5.5.5h1.5V21c0 1.8 1.5 3.2 3.4 3.2h1.7c.2 0 .4-.3.4-.5v-.5c0-.3-.3-.5-.5-.4H34c-1 0-2-.8-2-1.8v-8.1h3.4c.3 0 .5-.2.5-.5v-.6c0-.3-.2-.5-.5-.5z" stroke="#23B8CC"/><path d="M99.4 11.1c-3.4 0-4.4 2.7-4.4 2.7v-2.1c0-.2-.2-.4-.4-.4h-.8c-.2 0-.4.2-.4.4v12c0 .2.2.4.4.4h.8c.2 0 .4-.2.4-.4v-7c0-.2 0-4 4.4-4h.2c.2 0 .4-.2.4-.5v-.7c0-.2-.2-.4-.4-.4h-.2z" fill="#23B8CC"/><path d="M99.4 11.1c-3.4 0-4.4 2.7-4.4 2.7v-2.1c0-.2-.2-.4-.4-.4h-.8c-.2 0-.4.2-.4.4v12c0 .2.2.4.4.4h.8c.2 0 .4-.2.4-.4v-7c0-.2 0-4 4.4-4h.2c.2 0 .4-.2.4-.5v-.7c0-.2-.2-.4-.4-.4 0 0 0 0 0 0h-.2z" stroke="#23B8CC"/><path d="M68.3 11c-2.2 0-4.2 1-5.5 2.7l-.2.4V6.6c0-.3-.2-.5-.5-.5h-.7c-.2 0-.4.2-.4.5v17c0 .3.2.5.4.5h.7c.3 0 .5-.2.5-.5v-2.2l.2.4a6.8 6.8 0 005.5 2.6c3.7 0 6.7-3 6.7-6.7S72 11 68.3 11zM68 23a5.5 5.5 0 01-5.4-4.2 5.2 5.2 0 010-2.1 5.5 5.5 0 015.4-4.3c3 0 5.5 2.4 5.5 5.3 0 3-2.5 5.3-5.5 5.3z" fill="#23B8CC"/><path d="M68.3 11c-2.2 0-4.2 1-5.5 2.7l-.2.4V6.6c0-.3-.2-.5-.5-.5h-.7c-.2 0-.4.2-.4.5v17c0 .3.2.5.4.5h.7c.3 0 .5-.2.5-.5v-2.2l.2.4a6.8 6.8 0 005.5 2.6c3.7 0 6.7-3 6.7-6.7S72 11 68.3 11zM68 23a5.5 5.5 0 01-5.4-4.2 5.2 5.2 0 010-2.1 5.5 5.5 0 015.4-4.3c3 0 5.5 2.4 5.5 5.3 0 3-2.5 5.3-5.5 5.3z" stroke="#23B8CC"/><path d="M51.8 11c-2.1 0-4 1-5.4 2.7l-.3.4V6.6c0-.3-.2-.5-.4-.5H45c-.2 0-.5.2-.5.5v17c0 .3.3.5.5.5h.7c.2 0 .4-.2.4-.5v-2.2l.3.4a6.8 6.8 0 005.4 2.6c3.8 0 6.8-3 6.8-6.7s-3-6.7-6.8-6.7zm-.2 12a5.5 5.5 0 01-5.4-4.2 5.2 5.2 0 010-2.1 5.5 5.5 0 015.4-4.3c3 0 5.5 2.4 5.5 5.3 0 3-2.4 5.3-5.5 5.3z" fill="#23B8CC"/><path d="M51.8 11c-2.1 0-4 1-5.4 2.7l-.3.4V6.6c0-.3-.2-.5-.4-.5H45c-.2 0-.5.2-.5.5v17c0 .3.3.5.5.5h.7c.2 0 .4-.2.4-.5v-2.2l.3.4a6.8 6.8 0 005.4 2.6c3.8 0 6.8-3 6.8-6.7s-3-6.7-6.8-6.7zm-.2 12a5.5 5.5 0 01-5.4-4.2 5.2 5.2 0 010-2.1 5.5 5.5 0 015.4-4.3c3 0 5.5 2.4 5.5 5.3 0 3-2.4 5.3-5.5 5.3z" stroke="#23B8CC"/><path d="M40 6.4c-.6 0-1.2.5-1.2 1.2 0 .6.6 1.1 1.2 1.1.7 0 1.2-.5 1.2-1.1 0-.7-.5-1.2-1.2-1.2z" fill="#23B8CC"/><path d="M40 6.4c-.6 0-1.2.5-1.2 1.2 0 .6.6 1.1 1.2 1.1.7 0 1.2-.5 1.2-1.1 0-.7-.5-1.2-1.2-1.2z" stroke="#23B8CC"/><path d="M40.3 11.3h-1.8c-.2 0-.4.2-.4.5v.6c0 .3.2.5.4.5h.7v10.7c0 .3.2.5.5.5h.6c.3 0 .5-.2.5-.5V11.8c0-.3-.2-.5-.5-.5z" fill="#23B8CC"/><path d="M40.3 11.3h-1.8c-.2 0-.4.2-.4.5v.6c0 .3.2.5.4.5h.7v10.7c0 .3.2.5.5.5h.6c.3 0 .5-.2.5-.5V11.8c0-.3-.2-.5-.5-.5z" stroke="#23B8CC"/><path d="M83.8 11c-4 0-6.8 2.9-6.8 6.7 0 4 2.9 6.8 6.8 6.8 3 0 4.9-1.5 5.8-2.5.1-.2 0-.5-.1-.6l-.7-.4a.4.4 0 00-.5 0c-.6.8-2 2-4.5 2-2.6 0-5-1.9-5.3-4.5h11.7c.2 0 .4-.2.4-.4v-.4c0-3.7-3-6.7-6.8-6.7zm5.2 6H78.5a5.3 5.3 0 015.3-4.5 5 5 0 015.2 4.4v.2z" fill="#23B8CC"/><path d="M83.8 11c-4 0-6.8 2.9-6.8 6.7 0 4 2.9 6.8 6.8 6.8 3 0 4.9-1.5 5.8-2.5.1-.2 0-.5-.1-.6l-.7-.4a.4.4 0 00-.5 0c-.6.8-2 2-4.5 2-2.6 0-5-1.9-5.3-4.5h11.7c.2 0 .4-.2.4-.4 0 0 0 0 0 0v-.4c0-3.7-3-6.7-6.8-6.7zm5.2 6H78.5a5.3 5.3 0 015.3-4.5 5 5 0 015.2 4.4v.2z" stroke="#23B8CC"/><path d="M1.7 17.5h11.7c.4 0 .8-.3.8-.7 0-.4-.4-.7-.8-.7H1.7l-.2-.1v-.2L14.1 2s.1-.2.3 0c.1 0 0 0 0 .1l-1.8 6.2c-.2.4 0 .8.5.9.4 0 .8-.1.9-.5l1.9-6.2c.2-.7-.1-1.5-.8-1.8-.7-.4-1.6-.2-2 .3L.3 14.8c-.4.5-.5 1.2-.2 1.7.2.6.8 1 1.5 1z" fill="#23B8CC"/><path d="M20.7 11.3H8.9c-.4 0-.7.3-.7.7 0 .4.3.7.7.7h11.8l.2.1v.2L8.1 26.8s0 .2-.2 0c-.2 0-.1 0-.1-.1l1.9-6.2a.7.7 0 00-.5-.9.7.7 0 00-1 .5l-1.8 6.2c-.3.7 0 1.5.8 1.8.7.4 1.5.2 2-.3L22 14c.5-.5.6-1.2.3-1.7-.3-.6-.9-1-1.5-1z" fill="#23B8CC"/></svg>